<?xml version="1.0" encoding="UTF-8"?>
<!-- Created with Inkscape (http://www.inkscape.org/) -->
<svg width="960" height="390" version="1.1" viewBox="0 0 254 103.19" xmlns="http://www.w3.org/2000/svg" xmlns:cc="http://creativecommons.org/ns#" xmlns:dc="http://purl.org/dc/elements/1.1/" xmlns:rdf="http://www.w3.org/1999/02/22-rdf-syntax-ns#" xmlns:xlink="http://www.w3.org/1999/xlink">
 <defs>
  <linearGradient id="linearGradient6316" x1="137.58" x2="137.21" y1="257.88" y2="297.19" gradientUnits="userSpaceOnUse">
   <stop stop-color="#1fbcfd" stop-opacity=".46193" offset="0"/>
   <stop stop-color="#26b8fd" stop-opacity=".99608" offset="1"/>
  </linearGradient>
  <filter id="filter6356" x="0" y="0" width="1.0138" height="1.0441" color-interpolation-filters="sRGB">
   <feFlood flood-color="rgb(0,0,0)" flood-opacity=".15" result="flood"/>
   <feComposite in="flood" in2="SourceGraphic" operator="in" result="composite1"/>
   <feGaussianBlur in="composite1" result="blur"/>
   <feOffset dx="6" dy="6" result="offset"/>
   <feComposite in="SourceGraphic" in2="offset" result="composite2"/>
  </filter>
 </defs>
 <metadata>
  <rdf:RDF>
   <cc:Work rdf:about="">
    <dc:format>image/svg+xml</dc:format>
    <dc:type rdf:resource="http://purl.org/dc/dcmitype/StillImage"/>
   </cc:Work>
  </rdf:RDF>
 </metadata>
 <g transform="translate(0 -193.81)">
  <rect x="1.0588e-22" y="193.81" width="254" height="103.19" ry="0" fill="url(#linearGradient6316)" style="paint-order:fill markers stroke"/>
  <g transform="matrix(.1424 0 0 .1424 87.319 196.7)" filter="url(#filter6356)">
   <g transform="translate(-572.43 13.138)">
    <g fill="#666">
     <path d="m207.08 20.2h27.55c9.35 0 17.51 1.93 24.49 5.8 6.97 3.87 12.33 9.25 16.07 16.13 3.74 6.89 5.61 14.79 5.61 23.72s-1.87 16.83-5.61 23.72-9.1 12.26-16.07 16.13-15.13 5.8-24.49 5.8h-27.55zm27.55 80.99c10.8 0 19.36-3.1 25.7-9.31 6.33-6.21 9.5-14.88 9.5-26.02s-3.17-19.81-9.5-26.02-14.9-9.31-25.7-9.31h-16.83v70.65h16.83z"/>
     <path d="m297.49 110.75c-3.74-1.87-6.63-4.44-8.67-7.72-2.04-3.27-3.06-6.99-3.06-11.16 0-6.89 2.59-12.26 7.78-16.13 5.18-3.87 11.73-5.8 19.64-5.8 3.91 0 7.54 0.43 10.9 1.28s5.93 1.83 7.72 2.93v-3.95c0-4.85-1.7-8.74-5.1-11.67s-7.7-4.4-12.88-4.4c-3.66 0-7.01 0.79-10.08 2.36-3.06 1.57-5.48 3.76-7.27 6.57l-8.16-6.12c2.55-3.91 6.06-6.97 10.52-9.18s9.42-3.32 14.86-3.32c8.84 0 15.79 2.32 20.85 6.95 5.06 4.64 7.59 10.95 7.59 18.94v41.19h-10.33v-9.31h-0.51c-1.87 3.15-4.68 5.82-8.42 8.03s-7.95 3.32-12.63 3.32c-4.75 0-9-0.94-12.75-2.81zm23.98-9.56c3.14-1.87 5.65-4.38 7.52-7.52s2.81-6.59 2.81-10.33c-2.04-1.36-4.55-2.47-7.52-3.32-2.98-0.85-6.12-1.28-9.44-1.28-5.95 0-10.44 1.23-13.45 3.7-3.02 2.47-4.53 5.66-4.53 9.56 0 3.57 1.36 6.46 4.08 8.67s6.16 3.32 10.33 3.32c3.65 0 7.06-0.93 10.2-2.8z"/>
     <path d="m353.57 47.5h10.33v10.33h0.51c1.53-3.83 4.12-6.8 7.78-8.93 3.65-2.12 7.65-3.19 11.99-3.19 1.87 0 3.44 0.13 4.72 0.38v11.1c-1.45-0.34-3.4-0.51-5.87-0.51-5.53 0-10.01 1.83-13.45 5.48-3.44 3.66-5.17 8.42-5.17 14.28v36.09h-10.84zm67.32 64.76c-2.25-0.86-4.14-2.03-5.68-3.51-1.7-1.64-2.98-3.55-3.83-5.71s-1.28-4.8-1.28-7.92v-38.82h-11.35v-9.82h11.35v-18.36h10.84v18.36h15.81v9.82h-15.81v36.24c0 3.65 0.68 6.34 2.04 8.08 1.61 1.91 3.95 2.87 7.01 2.87 2.46 0 4.85-0.72 7.14-2.17v10.59c-1.28 0.59-2.57 1.02-3.89 1.28s-3 0.38-5.04 0.38c-2.61-0.01-5.05-0.45-7.31-1.31z"/>
    </g>
    <path d="m29.64 108.94-23.28-23.28c-2.76-2.84-4.48-6.84-4.48-10.75 0-1.81 1.02-4.64 1.79-6.27l21.49-44.77z" fill="#01579b"/>
    <path d="m109.34 28.35-23.28-23.28c-2.03-2.04-6.27-4.48-9.85-4.48-3.08 0-6.1 0.62-8.06 1.79l-42.98 21.49z" fill="#40c4ff"/>
    <polygon points="113.82 136.7 113.82 112.52 71.73 99.09 33.23 112.52 57.4 136.7" fill="#40c4ff"/>
    <path d="m25.17 96.41c0 7.18 0.9 8.95 4.48 12.54l3.58 3.58h80.59l-39.4-44.77-49.25-43.88z" fill="#29b6f6"/>
    <path d="m96.8 23.87h-71.64l88.65 88.65h24.18v-55.52l-28.65-28.65c-4.02-4.04-7.6-4.48-12.54-4.48z" fill="#01579b"/>
    <path d="m30.54 109.84c-3.58-3.6-4.48-7.14-4.48-13.43v-71.64l-0.9-0.9v72.53c0.01 6.3 0.01 8.04 5.38 13.44l2.69 2.69z" enable-background="new    " fill="#fff" opacity=".2"/>
    <polygon points="137.1 111.63 112.92 111.63 113.82 112.52 138 112.52 138 57.01 137.1 56.11" enable-background="new    " fill="#263238" opacity=".2"/>
    <path d="m109.34 28.35c-4.44-4.44-8.08-4.48-13.43-4.48h-70.74l0.9 0.9h69.85c2.66 0 9.41-0.45 13.42 3.58z" enable-background="new    " fill="#fff" opacity=".2"/>
    <radialGradient id="SVGID_1_" cx="69.955" cy="60.886" r="68.065" gradientTransform="matrix(1 0 0 -1 0 129.53)" gradientUnits="userSpaceOnUse">
     <stop stop-color="#fff" stop-opacity=".1" offset="0"/>
     <stop stop-color="#fff" stop-opacity="0" offset="1"/>
    </radialGradient>
    <path d="m137.1 56.11-51.04-51.04c-2.03-2.04-6.27-4.48-9.85-4.48-3.08 0-6.1 0.62-8.06 1.79l-42.98 21.49-21.49 44.77c-0.77 1.63-1.79 4.46-1.79 6.27 0 3.91 1.72 7.91 4.48 10.75l21.46 21.3c0.51 0.63 1.11 1.27 1.83 1.98l27.77 27.77h56.42v-24.18h24.18v-55.52z" enable-background="new    " fill="url(#SVGID_1_)" opacity=".2"/>
   </g>
  </g>
  <text x="45.20034" y="251.97328" fill="#ffffff" font-family="Arial" font-size="25.4px" letter-spacing="0px" stroke="#1fbcfd" stroke-width=".19459" word-spacing="0px" style="font-feature-settings:normal;font-variant-caps:normal;font-variant-ligatures:normal;font-variant-numeric:normal;line-height:1.25" xml:space="preserve"><tspan x="45.20034" y="251.97328" fill="#ffffff" font-family="Arial" font-size="25.4px" letter-spacing="0px" stroke="#1fbcfd" stroke-width=".19459" style="font-feature-settings:normal;font-variant-caps:normal;font-variant-ligatures:normal;font-variant-numeric:normal">dart:developer</tspan></text>
 </g>
</svg>
