<?xml version="1.0" encoding="UTF-8" standalone="no"?>
<!-- Created with Inkscape (http://www.inkscape.org/) -->

<svg
   xmlns:dc="http://purl.org/dc/elements/1.1/"
   xmlns:cc="http://creativecommons.org/ns#"
   xmlns:rdf="http://www.w3.org/1999/02/22-rdf-syntax-ns#"
   xmlns:svg="http://www.w3.org/2000/svg"
   xmlns="http://www.w3.org/2000/svg"
   xmlns:sodipodi="http://sodipodi.sourceforge.net/DTD/sodipodi-0.dtd"
   xmlns:inkscape="http://www.inkscape.org/namespaces/inkscape"
   width="960"
   height="390"
   viewBox="0 0 253.99999 103.1875"
   version="1.1"
   id="svg8"
   inkscape:version="0.92.1 r15371"
   sodipodi:docname="20231219_flutter_logo.svg">
  <defs
     id="defs2" />
  <sodipodi:namedview
     id="base"
     pagecolor="#ffffff"
     bordercolor="#666666"
     borderopacity="1.0"
     inkscape:pageopacity="0"
     inkscape:pageshadow="2"
     inkscape:zoom="0.98994949"
     inkscape:cx="457.70909"
     inkscape:cy="186.01859"
     inkscape:document-units="mm"
     inkscape:current-layer="g5077"
     showgrid="false"
     units="px"
     inkscape:pagecheckerboard="false"
     inkscape:window-width="1920"
     inkscape:window-height="1008"
     inkscape:window-x="-8"
     inkscape:window-y="-8"
     inkscape:window-maximized="1" />
  <metadata
     id="metadata5">
    <rdf:RDF>
      <cc:Work
         rdf:about="">
        <dc:format>image/svg+xml</dc:format>
        <dc:type
           rdf:resource="http://purl.org/dc/dcmitype/StillImage" />
        <dc:title></dc:title>
      </cc:Work>
    </rdf:RDF>
  </metadata>
  <g
     inkscape:label="Layer 1"
     inkscape:groupmode="layer"
     id="layer1"
     transform="translate(0,-193.81247)">
    <g
       id="g5077"
       transform="translate(-0.26727022,-0.26727004)">
      <rect
         ry="3.0137451"
         y="194.07912"
         x="0.2672686"
         height="102.89877"
         width="254.17332"
         id="rect5068"
         style="opacity:1;fill:#f9f9f9;fill-opacity:1;stroke:none;stroke-width:0.46898523;stroke-miterlimit:4;stroke-dasharray:none;stroke-dashoffset:0;stroke-opacity:1;paint-order:fill markers stroke" />
      <path
         id="path4485"
         d="m 45.455995,210.5723 21.608521,-0.0238 -36.253208,36.23469 -9.448271,9.39535 -10.750021,-10.76325 z m -0.201083,32.35325 c 0.280458,-0.37041 0.796396,-0.18785 1.187979,-0.23548 l 20.603104,0.005 -18.777479,18.75925 -10.805583,-10.73943 z"
         style="fill:#44d1fd;stroke-width:0.26458332"
         inkscape:connector-curvature="0" />
      <path
         id="path4487-1"
         d="m 82.190944,226.74364 23.555846,0.008 -0.003,4.63815 c -6.162156,0 -12.326946,-0.0185 -18.491726,0.008 -0.47096,0.15611 -0.24871,0.74613 -0.30163,1.10861 l 0.0185,12.4751 c 0.15611,0.46831 0.74877,0.24342 1.1139,0.30163 l 15.811496,-0.008 v 4.63285 c -4.915966,-0.003 -9.829276,-0.003 -14.745226,0 -0.73025,-0.003 -1.46844,-0.0476 -2.19075,0.0767 l -0.0556,17.61067 c -1.58485,-0.0635 -3.16706,-0.005 -4.75192,-0.0397 l -0.003,-40.06321 z m 29.268206,0.008 h 4.83658 l 0.003,27.71775 -0.0529,13.0519 c -1.57427,-0.0291 -3.14854,-0.037 -4.72017,0.005 -0.1217,-0.64559 -0.0714,-1.30175 -0.0714,-1.95263 z m 47.33925,3.43694 4.85246,0.003 0.008,8.20209 c 2.37332,0.0582 4.75986,-0.10584 7.12788,0.082 -0.0661,1.47108 -0.0106,2.94216 -0.037,4.41325 -2.36009,0.005 -4.71752,0.0238 -7.07496,-0.0106 l -0.0185,16.33538 c 0.0503,1.51342 0.37306,3.34169 1.84414,4.12221 1.68011,0.95514 3.74386,0.50535 5.334,-0.4154 v 4.75192 c -1.75154,0.79375 -3.74914,0.889 -5.63033,0.63235 -2.65112,-0.40481 -5.19112,-2.21191 -5.99281,-4.83923 -0.53181,-1.43933 -0.41011,-2.99243 -0.42069,-4.49527 l -0.0106,-15.90939 -0.11906,-0.13494 c -1.67482,-0.09 -3.35492,0.0132 -5.03238,-0.045 0.0106,-1.49754 -0.0582,-2.99508 0.037,-4.48998 1.70392,-0.0291 3.41577,0.0767 5.11704,-0.0529 z m 20.49992,-0.0159 c 1.61395,0.0556 3.22791,-0.0185 4.83922,0.037 l 0.11113,0.12171 c 0.0608,2.69346 -0.082,5.39486 0.0635,8.08302 2.29922,-0.0423 4.59845,-0.008 6.89503,-0.0212 l 0.0159,4.46087 c -2.31246,0.0873 -4.63286,0.0344 -6.94532,0.0212 l -0.0265,16.61848 c -0.003,1.44727 0.41539,3.15912 1.81504,3.87085 1.71714,0.93663 3.79941,0.45508 5.39485,-0.50271 l -0.005,4.77838 c -1.70127,0.76729 -3.6195,0.91546 -5.45571,0.70379 -2.38389,-0.3175 -4.71752,-1.66423 -5.8367,-3.84704 -0.53975,-1.143 -0.84137,-2.40771 -0.89164,-3.66977 V 242.8938 c -1.67482,-0.003 -3.34699,0.005 -5.01916,0 l 0.0106,-4.51644 c 1.64836,0.045 3.29671,-0.0132 4.94507,0.0423 0.17462,-2.74108 -0.0132,-5.50068 0.09,-8.24706 z m 23.55319,8.37406 c 3.34963,-1.38906 7.21519,-1.41552 10.63625,-0.25135 3.91849,1.35202 6.95061,4.77044 8.06186,8.73654 0.72761,2.19869 0.6985,4.53496 0.59531,6.82096 l -23.03198,0.0238 c 0.1905,2.45269 0.92341,4.953 2.62731,6.7945 2.42094,2.82311 6.58813,3.87086 10.1071,2.76225 2.46856,-0.7276 4.39472,-2.62731 5.66207,-4.81012 1.4023,0.62706 2.7649,1.34144 4.1619,1.98437 -1.91029,3.64067 -5.38427,6.53257 -9.46679,7.31573 -3.35228,0.62706 -7.0194,0.64294 -10.09386,-1.01335 -3.98992,-1.98173 -6.73629,-6.01663 -7.51945,-10.35579 -0.56886,-3.33375 -0.39159,-6.86065 0.86253,-10.02507 1.31498,-3.47398 3.97405,-6.48229 7.39775,-7.98248 m 1.82298,4.18307 c -2.81781,1.30175 -4.63285,4.19364 -5.19906,7.17814 l 17.66358,-0.0556 c -0.28045,-1.94998 -0.97365,-3.93171 -2.4024,-5.34194 -2.50297,-2.68287 -6.78128,-3.20675 -10.06212,-1.78064 z m 27.95588,0.38364 c 1.84414,-4.47939 7.50888,-6.83154 11.98827,-4.95564 v 5.22816 c -1.88119,-0.74083 -3.98991,-1.19856 -5.97694,-0.61383 -2.71462,0.80698 -4.72281,3.22792 -5.49275,5.89227 -0.52916,1.79917 -0.33072,3.67771 -0.30956,5.52186 -0.20638,2.38654 0.10319,4.77572 -0.0529,7.16227 0.127,2.0611 -0.11112,4.1222 0.0635,6.18595 -1.6457,0.0794 -3.29141,-0.005 -4.93448,0.0503 -0.0953,-6.22036 -0.0132,-12.44336 -0.0397,-18.66636 l 0.037,-10.47485 c 1.54251,0.0423 3.08768,-0.005 4.63284,0.0318 0.14023,1.54516 -0.17197,3.09827 0.0847,4.63814 z m -109.39726,-4.7281 c 1.64041,0.0688 3.29406,-0.0979 4.92654,0.0873 l -0.0238,17.34079 c -0.0159,2.11932 0.28575,4.43442 1.75154,6.08013 1.89177,2.0955 5.09587,2.47914 7.6835,1.651 3.4581,-1.23825 5.8711,-4.90009 5.73087,-8.56192 l 0.0529,-16.59731 4.93977,0.0106 -0.0291,29.1174 c -1.56634,-0.0265 -3.13002,0 -4.69371,-0.0185 l -0.0185,-4.14338 c -1.01336,1.27265 -2.07698,2.56117 -3.52954,3.36286 -2.97392,1.87589 -6.74688,2.1246 -10.07798,1.16416 -2.14842,-0.64823 -4.01902,-2.15371 -5.09588,-4.12221 -1.27794,-2.16429 -1.60073,-4.72281 -1.67481,-7.18872 z"
         style="opacity:0.54000005;fill:#00ddff;stroke-width:0.26458332;fill-opacity:0.47208121"
         inkscape:connector-curvature="0" />
      <path
         id="path4487"
         d="m 81.132597,225.6853 23.555843,0.008 -0.003,4.63815 c -6.162146,0 -12.326936,-0.0185 -18.491723,0.008 -0.47096,0.15611 -0.24871,0.74613 -0.30163,1.10861 l 0.0185,12.4751 c 0.15611,0.46831 0.74877,0.24342 1.1139,0.30163 l 15.811493,-0.008 v 4.63285 c -4.915956,-0.003 -9.829266,-0.003 -14.745223,0 -0.73025,-0.003 -1.46844,-0.0476 -2.19075,0.0767 l -0.0556,17.61067 c -1.58485,-0.0635 -3.16706,-0.005 -4.75192,-0.0397 l -0.003,-40.06321 z m 29.268203,0.008 h 4.83658 l 0.003,27.71775 -0.0529,13.0519 c -1.57427,-0.0291 -3.14854,-0.037 -4.72017,0.005 -0.1217,-0.64559 -0.0714,-1.30175 -0.0714,-1.95263 z m 47.33925,3.43694 4.85246,0.003 0.008,8.20209 c 2.37332,0.0582 4.75986,-0.10584 7.12788,0.082 -0.0661,1.47108 -0.0106,2.94216 -0.037,4.41325 -2.36009,0.005 -4.71752,0.0238 -7.07496,-0.0106 l -0.0185,16.33538 c 0.0503,1.51342 0.37306,3.34169 1.84414,4.12221 1.68011,0.95514 3.74386,0.50535 5.334,-0.4154 v 4.75192 c -1.75154,0.79375 -3.74914,0.889 -5.63033,0.63235 -2.65112,-0.40481 -5.19112,-2.21191 -5.99281,-4.83923 -0.53181,-1.43933 -0.41011,-2.99243 -0.42069,-4.49527 l -0.0106,-15.90939 -0.11906,-0.13494 c -1.67482,-0.09 -3.35492,0.0132 -5.03238,-0.045 0.0106,-1.49754 -0.0582,-2.99508 0.037,-4.48998 1.70392,-0.0291 3.41577,0.0767 5.11704,-0.0529 z m 20.49992,-0.0159 c 1.61395,0.0556 3.22791,-0.0185 4.83922,0.037 l 0.11113,0.12171 c 0.0608,2.69346 -0.082,5.39486 0.0635,8.08302 2.29923,-0.0423 4.59846,-0.008 6.89504,-0.0212 l 0.0159,4.46087 c -2.31246,0.0873 -4.63286,0.0344 -6.94532,0.0212 l -0.0265,16.61848 c -0.003,1.44727 0.41539,3.15912 1.81504,3.87085 1.71714,0.93663 3.79941,0.45508 5.39485,-0.50271 l -0.005,4.77838 c -1.70127,0.76729 -3.6195,0.91546 -5.45571,0.70379 -2.38389,-0.3175 -4.71752,-1.66423 -5.83671,-3.84704 -0.53975,-1.143 -0.84137,-2.40771 -0.89164,-3.66977 v -17.93346 c -1.67482,-0.003 -3.34698,0.005 -5.01915,0 l 0.0106,-4.51644 c 1.64836,0.045 3.29671,-0.0132 4.94507,0.0423 0.17462,-2.74108 -0.0132,-5.50068 0.09,-8.24706 z m 23.5532,8.37406 c 3.34963,-1.38906 7.21519,-1.41552 10.63625,-0.25135 3.91848,1.35202 6.95061,4.77044 8.06186,8.73654 0.7276,2.19869 0.6985,4.53496 0.59531,6.82096 l -23.03198,0.0238 c 0.1905,2.45269 0.9234,4.953 2.62731,6.7945 2.42094,2.82311 6.58813,3.87086 10.10709,2.76225 2.46856,-0.7276 4.39473,-2.62731 5.66208,-4.81012 1.40229,0.62706 2.7649,1.34144 4.1619,1.98437 -1.9103,3.64067 -5.38427,6.53257 -9.4668,7.31573 -3.35227,0.62706 -7.01939,0.64294 -10.09385,-1.01335 -3.98992,-1.98173 -6.73629,-6.01663 -7.51946,-10.35579 -0.56885,-3.33375 -0.39158,-6.86065 0.86254,-10.02507 1.31498,-3.47398 3.97405,-6.48229 7.39775,-7.98248 m 1.82298,4.18307 c -2.81781,1.30175 -4.63285,4.19364 -5.19906,7.17814 l 17.66358,-0.0556 c -0.28045,-1.94998 -0.97366,-3.93171 -2.40241,-5.34194 -2.50296,-2.68287 -6.78127,-3.20675 -10.06211,-1.78064 z m 27.95588,0.38364 c 1.84414,-4.47939 7.50887,-6.83154 11.98827,-4.95564 v 5.22816 c -1.88119,-0.74083 -3.98992,-1.19856 -5.97694,-0.61383 -2.71462,0.80698 -4.72281,3.22792 -5.49275,5.89227 -0.52917,1.79917 -0.33073,3.67771 -0.30956,5.52186 -0.20638,2.38654 0.10319,4.77572 -0.0529,7.16227 0.127,2.0611 -0.11112,4.1222 0.0635,6.18595 -1.64571,0.0794 -3.29141,-0.005 -4.93448,0.0503 -0.0953,-6.22036 -0.0132,-12.44336 -0.0397,-18.66636 l 0.037,-10.47485 c 1.54252,0.0423 3.08768,-0.005 4.63285,0.0318 0.14023,1.54516 -0.17198,3.09827 0.0847,4.63814 z M 122.17476,237.327 c 1.64041,0.0688 3.29406,-0.0979 4.92654,0.0873 l -0.0238,17.34079 c -0.0159,2.11932 0.28575,4.43442 1.75154,6.08013 1.89177,2.0955 5.09587,2.47914 7.6835,1.651 3.4581,-1.23825 5.8711,-4.90009 5.73087,-8.56192 l 0.0529,-16.59731 4.93977,0.0106 -0.0291,29.1174 c -1.56634,-0.0265 -3.13002,0 -4.69371,-0.0185 l -0.0185,-4.14338 c -1.01336,1.27265 -2.07698,2.56117 -3.52954,3.36286 -2.97392,1.87589 -6.74688,2.1246 -10.07798,1.16416 -2.14842,-0.64823 -4.01902,-2.15371 -5.09588,-4.12221 -1.27794,-2.16429 -1.60073,-4.72281 -1.67481,-7.18872 z"
         style="opacity:0.54000005;stroke-width:0.26458332;fill:#000000;fill-opacity:0.96446699"
         inkscape:connector-curvature="0" />
      <path
         id="path4489"
         d="m 26.691745,261.47284 10.771188,-10.75795 10.805583,10.73943 0.04498,0.0476 -10.847917,10.74737 z"
         style="fill:#1fbcfd;stroke-width:0.26458332"
         inkscape:connector-curvature="0" />
      <path
         id="path4491"
         d="m 37.465578,272.24932 10.847917,-10.74737 18.740438,18.75896 c -7.059084,0.0159 -14.115521,-0.005 -21.171959,0.0106 -0.402166,0.09 -0.650875,-0.27781 -0.907521,-0.50535 z"
         style="fill:#08589c;stroke-width:0.26458332"
         inkscape:connector-curvature="0" />
    </g>
  </g>
</svg>
