<svg xmlns="http://www.w3.org/2000/svg" viewBox="0 0 7.937 6.35" height="24" width="30" xmlns:v="https://vecta.io/nano"><defs><linearGradient y2="298.988" x2="-6.805" y1="296.369" x1="-6.805" id="A" gradientUnits="userSpaceOnUse"><stop offset="0" stop-color="#fff"/><stop offset="1" stop-color="#fff" stop-opacity=".546"/></linearGradient></defs><g transform="translate(0 -290.65)"><g transform="translate(10.906 -2.535)"><rect width="7.937" height="6.35" x="-10.906" y="293.185" ry=".472" fill="#0e232e" fill-opacity=".258"/><rect width="7.408" height="5.821" x="-10.642" y="293.449" ry=".316" fill="url(#A)"/></g><g fill="#0084c8"><rect width="3.14" height=".518" x="1.737" y="292.037" ry=".259"/><rect width="3.14" height=".518" x="1.737" y="293.082" ry=".259"/><rect width="3.14" height=".518" x="1.737" y="294.127" ry=".259"/><rect width="3.14" height=".518" x="1.737" y="295.173" ry=".259"/><path d="M6.042 292.698l-.575.794h1.15zm0 2.254l-.575-.794h1.15z"/><rect width="3.14" height=".518" x="1.892" y="292.286" ry=".259" fill-opacity=".155"/><rect width="3.14" height=".518" x="1.892" y="293.331" ry=".259" fill-opacity=".155"/><rect width="3.14" height=".518" x="1.892" y="294.376" ry=".259" fill-opacity=".155"/><rect width="3.14" height=".518" x="1.892" y="295.422" ry=".259" fill-opacity=".155"/></g></g></svg>