<?xml version="1.0" encoding="UTF-8"?>
<svg width="9.6e2" height="3.9e2" version="1.1" viewBox="0 0 254 103.188" xmlns="http://www.w3.org/2000/svg" xmlns:cc="http://creativecommons.org/ns#" xmlns:dc="http://purl.org/dc/elements/1.1/" xmlns:rdf="http://www.w3.org/1999/02/22-rdf-syntax-ns#">
<metadata>
<rdf:RDF>
<cc:Work rdf:about="">
<dc:format>image/svg+xml</dc:format>
<dc:type rdf:resource="http://purl.org/dc/dcmitype/StillImage"/>
<dc:title/>
</cc:Work>
</rdf:RDF>
</metadata>
<defs>
<linearGradient id="A" x1="1.4e2" x2="1.4e2" y1="2.6e2" y2="3e2" gradientTransform="translate(0 -1.9e2)" gradientUnits="userSpaceOnUse">
<stop stop-color="#1fbcfd" stop-opacity=".46" offset="0"/>
<stop stop-color="#26b8fd" offset="1"/>
</linearGradient>
<filter id="B" color-interpolation-filters="sRGB">
<feFlood flood-opacity=".15"/>
<feComposite in2="SourceGraphic" operator="in"/>
<feGaussianBlur/>
<feOffset dx="6" dy="6" result="result1"/>
<feComposite in="SourceGraphic" in2="result1"/>
</filter>
</defs>
<path d="m0 0h2.5e2v1e2h-2.5e2z" fill="url(#A)" style="paint-order:fill markers stroke"/>
<g transform="matrix(.14 0 0 .14 87 2.9)" filter="url(#B)">
<g transform="translate(-5.7e2 13)">
<g fill="#666">
<path d="m2.1e2 20h28c9.4 0 18 1.9 24 5.8 7 3.9 12 9.2 16 16 3.7 6.9 5.6 15 5.6 24s-1.9 17-5.6 24-9.1 12-16 16-15 5.8-24 5.8h-28zm28 81c11 0 19-3.1 26-9.3 6.3-6.2 9.5-15 9.5-26s-3.2-20-9.5-26-15-9.3-26-9.3h-17v71h17z"/>
<path d="m3e2 1.1e2c-3.7-1.9-6.6-4.4-8.7-7.7-2-3.3-3.1-7-3.1-11 0-6.9 2.6-12 7.8-16 5.2-3.9 12-5.8 20-5.8 3.9 0 7.5 0.43 11 1.3s5.9 1.8 7.7 2.9v-4c0-4.8-1.7-8.7-5.1-12s-7.7-4.4-13-4.4c-3.7 0-7 0.79-10 2.4-3.1 1.6-5.5 3.8-7.3 6.6l-8.2-6.1c2.6-3.9 6.1-7 11-9.2s9.4-3.3 15-3.3c8.8 0 16 2.3 21 7 5.1 4.6 7.6 11 7.6 19v41h-10v-9.3h-0.51c-1.9 3.2-4.7 5.8-8.4 8s-8 3.3-13 3.3c-4.8 0-9-0.94-13-2.8zm24-9.6c3.1-1.9 5.6-4.4 7.5-7.5s2.8-6.6 2.8-10c-2-1.4-4.6-2.5-7.5-3.3-3-0.85-6.1-1.3-9.4-1.3-6 0-10 1.2-13 3.7s-4.5 5.7-4.5 9.6c0 3.6 1.4 6.5 4.1 8.7s6.2 3.3 10 3.3a20 20 0 0 0 10 -2.8z"/>
<path d="m3.5e2 48h10v10h0.51c1.5-3.8 4.1-6.8 7.8-8.9 3.6-2.1 7.6-3.2 12-3.2 1.9 0 3.4 0.13 4.7 0.38v11c-1.4-0.34-3.4-0.51-5.9-0.51-5.5 0-10 1.8-13 5.5-3.4 3.7-5.2 8.4-5.2 14v36h-11zm67 65c-2.2-0.86-4.1-2-5.7-3.5-1.7-1.6-3-3.6-3.8-5.7s-1.3-4.8-1.3-7.9v-39h-11v-9.8h11v-18h11v18h16v9.8h-16v36c0 3.6 0.68 6.3 2 8.1 1.6 1.9 4 2.9 7 2.9 2.5 0 4.8-0.72 7.1-2.2v11c-1.3 0.59-2.6 1-3.9 1.3s-3 0.38-5 0.38c-2.6-0.01-5-0.45-7.3-1.3z"/>
</g>
<path d="m30 1.1e2 -23-23c-2.8-2.8-4.5-6.8-4.5-11 0-1.8 1-4.6 1.8-6.3l21-45z" fill="#01579b"/>
<g fill="#40c4ff">
<path d="m1.1e2 28-23-23c-2-2-6.3-4.5-9.8-4.5-3.1 0-6.1 0.62-8.1 1.8l-43 21z"/>
<path d="m1.1e2 1.4e2v-24l-42-13-38 13 24 24z"/>
</g>
<path d="m25 96c0 7.2 0.9 9 4.5 13l3.6 3.6h81l-39-45-49-44z" fill="#29b6f6"/>
<path d="m97 24h-72l89 89h24v-56l-29-29c-4-4-7.6-4.5-13-4.5z" fill="#01579b"/>
<path d="m31 1.1e2c-3.6-3.6-4.5-7.1-4.5-13v-72l-0.9-0.9v73c0.01 6.3 0.01 8 5.4 13l2.7 2.7z" fill="#fff" opacity=".2"/>
<path d="m1.1e2 1.1e2 0.9 0.89h24v-56l-0.9-0.9v56z" fill="#263238" opacity=".2"/>
<path d="m1.1e2 28c-4.4-4.4-8.1-4.5-13-4.5h-71l0.9 0.9h70c2.7 0 9.4-0.45 13 3.6z" fill="#fff" opacity=".2"/>
<radialGradient id="C" cx="70" cy="61" r="68" gradientTransform="matrix(1 0 0 -1 0 1.3e2)" gradientUnits="userSpaceOnUse">
<stop stop-color="#fff" stop-opacity=".1" offset="0"/>
<stop stop-color="#fff" stop-opacity="0" offset="1"/>
</radialGradient>
<path d="m1.4e2 56-28-28-23-23c-2-2-6.3-4.5-9.8-4.5-3.1 0-6.1 0.62-8.1 1.8l-43 21-21 45c-0.77 1.6-1.8 4.5-1.8 6.3 0 3.9 1.7 7.9 4.5 11l21 21c0.51 0.63 1.1 1.3 1.8 2l0.9 0.9 2.7 2.7 23 23 0.9 0.9h56v-24h24v-56z" fill="url(#C)" opacity=".2"/>
</g>
</g>
<text x="52.384766" y="56.967999" fill="#ffffff" font-family="Consolas" font-size="27px" letter-spacing="0" stroke="#1fbcfd" word-spacing="0" xml:space="preserve">			 <tspan x="52.384766" y="56.967999" font-family="monospace" font-weight="bold" letter-spacing="0" stroke-width=".42">dart:core</tspan>		</text>
<text x="69.094971" y="89.362015" fill="#ffffff" font-family="Consolas" font-size="27px" letter-spacing="0" stroke="#808080" word-spacing="0" xml:space="preserve"><tspan x="69.094971" y="89.362015" font-family="monospace" font-weight="bold" letter-spacing="0" stroke-width=".42">Records</tspan></text>
</svg>
