<?xml version="1.0" encoding="UTF-8" standalone="no"?>
<!-- Created with Inkscape (http://www.inkscape.org/) -->

<svg
   width="960"
   height="390"
   viewBox="0 0 253.99999 103.1875"
   version="1.1"
   id="svg8"
   sodipodi:docname="20240928_0000_cover.svg"
   inkscape:version="1.3.2 (091e20e, 2023-11-25, custom)"
   xmlns:inkscape="http://www.inkscape.org/namespaces/inkscape"
   xmlns:sodipodi="http://sodipodi.sourceforge.net/DTD/sodipodi-0.dtd"
   xmlns:xlink="http://www.w3.org/1999/xlink"
   xmlns="http://www.w3.org/2000/svg"
   xmlns:svg="http://www.w3.org/2000/svg"
   xmlns:rdf="http://www.w3.org/1999/02/22-rdf-syntax-ns#"
   xmlns:cc="http://creativecommons.org/ns#"
   xmlns:dc="http://purl.org/dc/elements/1.1/">
  <defs
     id="defs2">
    <linearGradient
       inkscape:collect="always"
       id="linearGradient6312">
      <stop
         style="stop-color:#1fbcfd;stop-opacity:0.46192893"
         offset="0"
         id="stop6308" />
      <stop
         style="stop-color:#26b8fd;stop-opacity:0.99607843"
         offset="1"
         id="stop6310" />
    </linearGradient>
    <linearGradient
       id="linearGradient6254"
       inkscape:swatch="solid">
      <stop
         style="stop-color:#0000ff;stop-opacity:1;"
         offset="0"
         id="stop6252" />
    </linearGradient>
    <linearGradient
       inkscape:collect="always"
       xlink:href="#linearGradient6312"
       id="linearGradient6316"
       x1="137.58334"
       y1="257.87946"
       x2="137.20535"
       y2="297.18896"
       gradientUnits="userSpaceOnUse" />
    <filter
       inkscape:label="Film Grain"
       inkscape:menu="Image Effects"
       inkscape:menu-tooltip="Adds a small scale graininess"
       style="color-interpolation-filters:sRGB;"
       id="filter6328">
      <feTurbulence
         type="fractalNoise"
         numOctaves="3"
         baseFrequency="1"
         seed="0"
         result="result0"
         id="feTurbulence6318" />
      <feColorMatrix
         result="result4"
         values="0"
         type="saturate"
         id="feColorMatrix6320" />
      <feComposite
         in="SourceGraphic"
         in2="result4"
         operator="arithmetic"
         k1="1.25"
         k2="0.5"
         k3="0.5"
         result="result2"
         id="feComposite6322"
         k4="0" />
      <feBlend
         result="result5"
         mode="normal"
         in="result2"
         in2="SourceGraphic"
         id="feBlend6324" />
      <feComposite
         in="result5"
         in2="SourceGraphic"
         operator="in"
         result="result3"
         id="feComposite6326" />
    </filter>
    <filter
       style="color-interpolation-filters:sRGB;"
       inkscape:label="Drop Shadow"
       id="filter6356"
       x="0"
       y="0"
       width="1.0137852"
       height="1.0440788">
      <feFlood
         flood-opacity="0.14999999999999999"
         flood-color="rgb(0,0,0)"
         result="flood"
         id="feFlood6346" />
      <feComposite
         in="flood"
         in2="SourceGraphic"
         operator="in"
         result="composite1"
         id="feComposite6348" />
      <feGaussianBlur
         in="composite1"
         stdDeviation="0"
         result="blur"
         id="feGaussianBlur6350" />
      <feOffset
         dx="6"
         dy="6"
         result="offset"
         id="feOffset6352" />
      <feComposite
         in="SourceGraphic"
         in2="offset"
         operator="over"
         result="composite2"
         id="feComposite6354" />
    </filter>
    <filter
       style="color-interpolation-filters:sRGB;"
       inkscape:label="Drop Shadow"
       id="filter6393"
       x="0"
       y="0"
       width="1.0063691"
       height="1.0227641">
      <feFlood
         flood-opacity="0.14999999999999999"
         flood-color="rgb(0,0,0)"
         result="flood"
         id="feFlood6383" />
      <feComposite
         in="flood"
         in2="SourceGraphic"
         operator="in"
         result="composite1"
         id="feComposite6385" />
      <feGaussianBlur
         in="composite1"
         stdDeviation="0"
         result="blur"
         id="feGaussianBlur6387" />
      <feOffset
         dx="6"
         dy="6"
         result="offset"
         id="feOffset6389" />
      <feComposite
         in="SourceGraphic"
         in2="offset"
         operator="over"
         result="composite2"
         id="feComposite6391" />
    </filter>
  </defs>
  <sodipodi:namedview
     id="base"
     pagecolor="#ffffff"
     bordercolor="#666666"
     borderopacity="1.0"
     inkscape:pageopacity="0"
     inkscape:pageshadow="2"
     inkscape:zoom="0.98994949"
     inkscape:cx="582.35294"
     inkscape:cy="227.7894"
     inkscape:document-units="mm"
     inkscape:current-layer="layer1"
     showgrid="false"
     units="px"
     inkscape:window-width="1920"
     inkscape:window-height="1008"
     inkscape:window-x="-8"
     inkscape:window-y="-8"
     inkscape:window-maximized="1"
     inkscape:showpageshadow="2"
     inkscape:pagecheckerboard="0"
     inkscape:deskcolor="#d1d1d1" />
  <metadata
     id="metadata5">
    <rdf:RDF>
      <cc:Work
         rdf:about="">
        <dc:format>image/svg+xml</dc:format>
        <dc:type
           rdf:resource="http://purl.org/dc/dcmitype/StillImage" />
        <dc:title />
      </cc:Work>
    </rdf:RDF>
  </metadata>
  <g
     inkscape:label="Layer 1"
     inkscape:groupmode="layer"
     id="layer1"
     transform="translate(0,-193.81248)"
     style="display:inline">
    <rect
       style="opacity:1;fill:url(#linearGradient6316);fill-opacity:1;stroke:none;stroke-width:0.54151309;stroke-miterlimit:4;stroke-dasharray:none;stroke-dashoffset:0;stroke-opacity:1;paint-order:fill markers stroke"
       id="rect4720"
       width="254"
       height="103.1875"
       x="1.0587912e-022"
       y="193.81248"
       ry="0" />
    <g
       id="g4518"
       transform="matrix(0.14240472,0,0,0.14240472,87.318786,196.69861)"
       style="filter:url(#filter6356)">
      <g
         id="g6375"
         transform="translate(-572.43332,13.137814)">
        <g
           style="opacity:1;fill:#666666"
           id="g4491">
          <path
             style="fill:#666666"
             inkscape:connector-curvature="0"
             d="m 207.08,20.2 h 27.55 c 9.35,0 17.51,1.93 24.49,5.8 6.97,3.87 12.33,9.25 16.07,16.13 3.74,6.89 5.61,14.79 5.61,23.72 0,8.93 -1.87,16.83 -5.61,23.72 -3.74,6.89 -9.1,12.26 -16.07,16.13 -6.97,3.87 -15.13,5.8 -24.49,5.8 h -27.55 z m 27.55,80.99 c 10.8,0 19.36,-3.1 25.7,-9.31 6.33,-6.21 9.5,-14.88 9.5,-26.02 0,-11.14 -3.17,-19.81 -9.5,-26.02 -6.33,-6.21 -14.9,-9.31 -25.7,-9.31 H 217.8 v 70.65 h 16.83 z"
             id="path4485" />
          <path
             style="fill:#666666"
             inkscape:connector-curvature="0"
             d="m 297.49,110.75 c -3.74,-1.87 -6.63,-4.44 -8.67,-7.72 -2.04,-3.27 -3.06,-6.99 -3.06,-11.16 0,-6.89 2.59,-12.26 7.78,-16.13 5.18,-3.87 11.73,-5.8 19.64,-5.8 3.91,0 7.54,0.43 10.9,1.28 3.36,0.85 5.93,1.83 7.72,2.93 V 70.2 c 0,-4.85 -1.7,-8.74 -5.1,-11.67 -3.4,-2.93 -7.7,-4.4 -12.88,-4.4 -3.66,0 -7.01,0.79 -10.08,2.36 -3.06,1.57 -5.48,3.76 -7.27,6.57 l -8.16,-6.12 c 2.55,-3.91 6.06,-6.97 10.52,-9.18 4.46,-2.21 9.42,-3.32 14.86,-3.32 8.84,0 15.79,2.32 20.85,6.95 5.06,4.64 7.59,10.95 7.59,18.94 v 41.19 H 331.8 v -9.31 h -0.51 c -1.87,3.15 -4.68,5.82 -8.42,8.03 -3.74,2.21 -7.95,3.32 -12.63,3.32 -4.75,0 -9,-0.94 -12.75,-2.81 z m 23.98,-9.56 c 3.14,-1.87 5.65,-4.38 7.52,-7.52 1.87,-3.14 2.81,-6.59 2.81,-10.33 -2.04,-1.36 -4.55,-2.47 -7.52,-3.32 -2.98,-0.85 -6.12,-1.28 -9.44,-1.28 -5.95,0 -10.44,1.23 -13.45,3.7 -3.02,2.47 -4.53,5.66 -4.53,9.56 0,3.57 1.36,6.46 4.08,8.67 2.72,2.21 6.16,3.32 10.33,3.32 3.65,0 7.06,-0.93 10.2,-2.8 z"
             id="path4487" />
          <path
             style="fill:#666666"
             inkscape:connector-curvature="0"
             d="m 353.57,47.5 h 10.33 v 10.33 h 0.51 c 1.53,-3.83 4.12,-6.8 7.78,-8.93 3.65,-2.12 7.65,-3.19 11.99,-3.19 1.87,0 3.44,0.13 4.72,0.38 v 11.1 c -1.45,-0.34 -3.4,-0.51 -5.87,-0.51 -5.53,0 -10.01,1.83 -13.45,5.48 -3.44,3.66 -5.17,8.42 -5.17,14.28 v 36.09 h -10.84 z m 67.32,64.76 c -2.25,-0.86 -4.14,-2.03 -5.68,-3.51 -1.7,-1.64 -2.98,-3.55 -3.83,-5.71 -0.85,-2.16 -1.28,-4.8 -1.28,-7.92 V 56.3 H 398.75 V 46.48 H 410.1 V 28.12 h 10.84 v 18.36 h 15.81 v 9.82 h -15.81 v 36.24 c 0,3.65 0.68,6.34 2.04,8.08 1.61,1.91 3.95,2.87 7.01,2.87 2.46,0 4.85,-0.72 7.14,-2.17 v 10.59 c -1.28,0.59 -2.57,1.02 -3.89,1.28 -1.32,0.26 -3,0.38 -5.04,0.38 -2.61,-0.01 -5.05,-0.45 -7.31,-1.31 z"
             id="path4489" />
        </g>
        <g
           id="g4516">
          <path
             style="fill:#01579b"
             inkscape:connector-curvature="0"
             d="M 29.64,108.94 6.36,85.66 C 3.6,82.82 1.88,78.82 1.88,74.91 1.88,73.1 2.9,70.27 3.67,68.64 L 25.16,23.87 Z"
             id="path4493" />
          <path
             style="fill:#40c4ff"
             inkscape:connector-curvature="0"
             d="M 109.34,28.35 86.06,5.07 C 84.03,3.03 79.79,0.59 76.21,0.59 c -3.08,0 -6.1,0.62 -8.06,1.79 L 25.17,23.87 Z"
             id="path4495" />
          <polygon
             style="fill:#40c4ff"
             points="113.82,136.7 113.82,112.52 71.73,99.09 33.23,112.52 57.4,136.7 "
             id="polygon4497" />
          <path
             style="fill:#29b6f6"
             inkscape:connector-curvature="0"
             d="m 25.17,96.41 c 0,7.18 0.9,8.95 4.48,12.54 l 3.58,3.58 h 80.59 L 74.42,67.76 25.17,23.88 Z"
             id="path4499" />
          <path
             style="fill:#01579b"
             inkscape:connector-curvature="0"
             d="M 96.8,23.87 H 25.16 l 88.65,88.65 h 24.18 V 57 L 109.34,28.35 c -4.02,-4.04 -7.6,-4.48 -12.54,-4.48 z"
             id="path4501" />
          <path
             style="opacity:0.2;fill:#ffffff"
             inkscape:connector-curvature="0"
             enable-background="new    "
             d="m 30.54,109.84 c -3.58,-3.6 -4.48,-7.14 -4.48,-13.43 V 24.77 l -0.9,-0.9 V 96.4 c 0.01,6.3 0.01,8.04 5.38,13.44 l 2.69,2.69 v 0 z"
             id="path4503" />
          <polygon
             style="opacity:0.2;fill:#263238"
             enable-background="new    "
             points="137.1,111.63 112.92,111.63 113.82,112.52 138,112.52 138,57.01 137.1,56.11 "
             id="polygon4505" />
          <path
             style="opacity:0.2;fill:#ffffff"
             inkscape:connector-curvature="0"
             enable-background="new    "
             d="M 109.34,28.35 C 104.9,23.91 101.26,23.87 95.91,23.87 H 25.17 l 0.9,0.9 h 69.85 c 2.66,0 9.41,-0.45 13.42,3.58 z"
             id="path4507" />
          <radialGradient
             id="SVGID_1_"
             cx="69.955002"
             cy="60.886398"
             r="68.065002"
             gradientTransform="matrix(1,0,0,-1,0,129.5328)"
             gradientUnits="userSpaceOnUse">
            <stop
               offset="0"
               style="stop-color:#FFFFFF;stop-opacity:0.1"
               id="stop4509" />
            <stop
               offset="1"
               style="stop-color:#FFFFFF;stop-opacity:0"
               id="stop4511" />
          </radialGradient>
          <path
             style="opacity:0.2;fill:url(#SVGID_1_)"
             inkscape:connector-curvature="0"
             enable-background="new    "
             d="M 137.1,56.11 109.34,28.35 86.06,5.07 C 84.03,3.03 79.79,0.59 76.21,0.59 c -3.08,0 -6.1,0.62 -8.06,1.79 L 25.17,23.87 3.68,68.64 c -0.77,1.63 -1.79,4.46 -1.79,6.27 0,3.91 1.72,7.91 4.48,10.75 l 21.46,21.3 c 0.51,0.63 1.11,1.27 1.83,1.98 l 0.9,0.9 2.69,2.69 23.28,23.28 0.9,0.9 h 55.52 0.9 v -24.18 h 24.18 v -0.06 -55.46 z"
             id="path4514" />
        </g>
      </g>
    </g>
    <text
       xml:space="preserve"
       style="font-style:normal;font-variant:normal;font-weight:normal;font-stretch:normal;font-size:25.4px;line-height:1.25;font-family:Arial;-inkscape-font-specification:'Arial, Normal';font-variant-ligatures:normal;font-variant-caps:normal;font-variant-numeric:normal;font-feature-settings:normal;text-align:start;letter-spacing:0px;word-spacing:0px;writing-mode:lr-tb;text-anchor:start;opacity:1;fill:#ffffff;fill-opacity:1;stroke:#1fbcfd;stroke-width:0.194593"
       x="91.740135"
       y="252.31964"
       id="text6513"><tspan
         sodipodi:role="line"
         id="tspan6511"
         x="91.740135"
         y="252.31964"
         style="font-style:normal;font-variant:normal;font-weight:normal;font-stretch:normal;font-size:25.4px;font-family:Arial;-inkscape-font-specification:'Arial, Normal';font-variant-ligatures:normal;font-variant-caps:normal;font-variant-numeric:normal;font-feature-settings:normal;text-align:start;letter-spacing:0px;writing-mode:lr-tb;text-anchor:start;fill:#ffffff;fill-opacity:1;stroke:#1fbcfd;stroke-width:0.194593">dart:io</tspan></text>
    <g
       id="g1"
       transform="matrix(0.72834384,0,0,0.72834384,-40.495715,72.68007)">
      <text
         id="text5140"
         y="283.82391"
         x="96.919609"
         style="font-style:normal;font-variant:normal;font-weight:normal;font-stretch:normal;font-size:25.4px;line-height:1.25;font-family:Arial;-inkscape-font-specification:'Arial, Normal';font-variant-ligatures:normal;font-variant-caps:normal;font-variant-numeric:normal;font-feature-settings:normal;text-align:start;letter-spacing:0px;word-spacing:0px;writing-mode:lr-tb;text-anchor:start;display:inline;opacity:1;fill:#000000;fill-opacity:0.133333;stroke:none;stroke-width:0.232853"
         xml:space="preserve"><tspan
           style="font-style:normal;font-variant:normal;font-weight:normal;font-stretch:normal;font-size:25.4px;font-family:Arial;-inkscape-font-specification:'Arial, Normal';font-variant-ligatures:normal;font-variant-caps:normal;font-variant-numeric:normal;font-feature-settings:normal;text-align:start;letter-spacing:0px;writing-mode:lr-tb;text-anchor:start;fill:#000000;fill-opacity:0.133333;stroke:none;stroke-width:0.232853"
           y="283.82391"
           x="96.919609"
           id="tspan5138"
           sodipodi:role="line">File, Directory, and Link</tspan></text>
      <text
         xml:space="preserve"
         style="font-style:normal;font-variant:normal;font-weight:normal;font-stretch:normal;font-size:25.4px;line-height:1.25;font-family:Arial;-inkscape-font-specification:'Arial, Normal';font-variant-ligatures:normal;font-variant-caps:normal;font-variant-numeric:normal;font-feature-settings:normal;text-align:start;letter-spacing:0px;word-spacing:0px;writing-mode:lr-tb;text-anchor:start;display:inline;opacity:1;fill:#666666;fill-opacity:1;stroke:none;stroke-width:0.232853"
         x="96.117798"
         y="282.75485"
         id="text6513-1"><tspan
           sodipodi:role="line"
           id="tspan6511-4"
           x="96.117798"
           y="282.75485"
           style="font-style:normal;font-variant:normal;font-weight:normal;font-stretch:normal;font-size:25.4px;font-family:Arial;-inkscape-font-specification:'Arial, Normal';font-variant-ligatures:normal;font-variant-caps:normal;font-variant-numeric:normal;font-feature-settings:normal;text-align:start;letter-spacing:0px;writing-mode:lr-tb;text-anchor:start;fill:#666666;fill-opacity:1;stroke:none;stroke-width:0.232853">File, Directory, and Link</tspan></text>
    </g>
  </g>
</svg>
